<mxfile host="app.diagrams.net" modified="2021-03-08T09:27:24.775Z" agent="5.0 (Windows NT 10.0; Win64; x64) AppleWebKit/537.36 (KHTML, like Gecko) Chrome/89.0.4389.82 Safari/537.36" etag="o4ZSRB3Qq0xMKwpfPM3P" version="14.4.4" type="github">
  <diagram name="Page-1" id="80d4a630-b321-0f5e-ff81-c5a36ef4752d">
    <mxGraphModel dx="3540" dy="3074" grid="1" gridSize="10" guides="1" tooltips="1" connect="1" arrows="1" fold="1" page="1" pageScale="1" pageWidth="1100" pageHeight="850" background="#ffffff" math="0" shadow="0">
      <root>
        <mxCell id="0" />
        <mxCell id="1" parent="0" />
        <mxCell id="24l3vRYm9YXjc25Ay6zQ-78" value="Actor" style="shape=umlActor;verticalLabelPosition=bottom;verticalAlign=top;html=1;outlineConnect=0;" vertex="1" parent="1">
          <mxGeometry x="1270" y="500" width="30" height="60" as="geometry" />
        </mxCell>
        <mxCell id="24l3vRYm9YXjc25Ay6zQ-79" value="Actor" style="shape=umlActor;verticalLabelPosition=bottom;verticalAlign=top;html=1;outlineConnect=0;" vertex="1" parent="1">
          <mxGeometry x="520" y="-150" width="30" height="60" as="geometry" />
        </mxCell>
        <mxCell id="24l3vRYm9YXjc25Ay6zQ-80" value="" style="ellipse;whiteSpace=wrap;html=1;" vertex="1" parent="1">
          <mxGeometry x="-720" y="-145" width="2120" height="1140" as="geometry" />
        </mxCell>
        <mxCell id="24l3vRYm9YXjc25Ay6zQ-81" value="&lt;font style=&quot;font-size: 19px&quot;&gt;Bureau&lt;br&gt;du&amp;nbsp;&lt;br&gt;Directeur&lt;br&gt;&lt;/font&gt;" style="ellipse;whiteSpace=wrap;html=1;" vertex="1" parent="1">
          <mxGeometry x="440" y="10" width="220" height="140" as="geometry" />
        </mxCell>
        <mxCell id="24l3vRYm9YXjc25Ay6zQ-82" value="&lt;font style=&quot;font-size: 19px&quot;&gt;Secrétaire&lt;/font&gt;" style="rounded=0;whiteSpace=wrap;html=1;" vertex="1" parent="1">
          <mxGeometry x="440" y="205" width="220" height="100" as="geometry" />
        </mxCell>
        <mxCell id="24l3vRYm9YXjc25Ay6zQ-83" value="" style="fontColor=#0066CC;verticalAlign=top;verticalLabelPosition=bottom;labelPosition=center;align=center;html=1;outlineConnect=0;fillColor=#CCCCCC;strokeColor=#6881B3;gradientColor=none;gradientDirection=north;strokeWidth=2;shape=mxgraph.networks.pc;" vertex="1" parent="1">
          <mxGeometry x="601.5" y="265" width="50" height="30" as="geometry" />
        </mxCell>
        <mxCell id="24l3vRYm9YXjc25Ay6zQ-84" value="" style="shape=mxgraph.cisco.modems_and_phones.softphone;html=1;pointerEvents=1;dashed=0;fillColor=#036897;strokeColor=#ffffff;strokeWidth=2;verticalLabelPosition=bottom;verticalAlign=top;align=center;outlineConnect=0;" vertex="1" parent="1">
          <mxGeometry x="450" y="260" width="50" height="40" as="geometry" />
        </mxCell>
        <mxCell id="24l3vRYm9YXjc25Ay6zQ-85" value="" style="fontColor=#0066CC;verticalAlign=top;verticalLabelPosition=bottom;labelPosition=center;align=center;html=1;outlineConnect=0;fillColor=#CCCCCC;strokeColor=#6881B3;gradientColor=none;gradientDirection=north;strokeWidth=2;shape=mxgraph.networks.phone_1;" vertex="1" parent="1">
          <mxGeometry x="591.5" y="65" width="50" height="30" as="geometry" />
        </mxCell>
        <mxCell id="24l3vRYm9YXjc25Ay6zQ-86" value="" style="endArrow=classic;startArrow=classic;html=1;fillColor=#f8cecc;strokeColor=#b85450;entryX=0.5;entryY=1;entryDx=0;entryDy=0;exitX=0.5;exitY=0;exitDx=0;exitDy=0;" edge="1" source="24l3vRYm9YXjc25Ay6zQ-82" target="24l3vRYm9YXjc25Ay6zQ-81" parent="1">
          <mxGeometry width="50" height="50" relative="1" as="geometry">
            <mxPoint x="506.75" y="205" as="sourcePoint" />
            <mxPoint x="556.75" y="155" as="targetPoint" />
          </mxGeometry>
        </mxCell>
        <mxCell id="24l3vRYm9YXjc25Ay6zQ-87" value="" style="rounded=0;whiteSpace=wrap;html=1;" vertex="1" parent="1">
          <mxGeometry x="30" y="456.25" width="1060" height="350" as="geometry" />
        </mxCell>
        <mxCell id="24l3vRYm9YXjc25Ay6zQ-88" value="&lt;font style=&quot;font-size: 19px&quot;&gt;Compta&lt;/font&gt;" style="rounded=0;whiteSpace=wrap;html=1;" vertex="1" parent="1">
          <mxGeometry x="50" y="545.63" width="150" height="90" as="geometry" />
        </mxCell>
        <mxCell id="24l3vRYm9YXjc25Ay6zQ-89" value="&lt;font style=&quot;font-size: 19px&quot;&gt;Compta&lt;/font&gt;" style="rounded=0;whiteSpace=wrap;html=1;" vertex="1" parent="1">
          <mxGeometry x="50" y="635.63" width="150" height="80" as="geometry" />
        </mxCell>
        <mxCell id="24l3vRYm9YXjc25Ay6zQ-90" value="&lt;font style=&quot;font-size: 19px&quot;&gt;Commerciaux&lt;/font&gt;" style="rounded=0;whiteSpace=wrap;html=1;" vertex="1" parent="1">
          <mxGeometry x="316.75" y="565" width="190" height="135" as="geometry" />
        </mxCell>
        <mxCell id="24l3vRYm9YXjc25Ay6zQ-91" value="" style="fontColor=#0066CC;verticalAlign=top;verticalLabelPosition=bottom;labelPosition=center;align=center;html=1;outlineConnect=0;fillColor=#CCCCCC;strokeColor=#6881B3;gradientColor=none;gradientDirection=north;strokeWidth=2;shape=mxgraph.networks.mobile;" vertex="1" parent="1">
          <mxGeometry x="465" y="572.5" width="20" height="40" as="geometry" />
        </mxCell>
        <mxCell id="24l3vRYm9YXjc25Ay6zQ-92" value="" style="fontColor=#0066CC;verticalAlign=top;verticalLabelPosition=bottom;labelPosition=center;align=center;html=1;outlineConnect=0;fillColor=#CCCCCC;strokeColor=#6881B3;gradientColor=none;gradientDirection=north;strokeWidth=2;shape=mxgraph.networks.phone_2;" vertex="1" parent="1">
          <mxGeometry x="50" y="690.63" width="30" height="25" as="geometry" />
        </mxCell>
        <mxCell id="24l3vRYm9YXjc25Ay6zQ-93" value="" style="fontColor=#0066CC;verticalAlign=top;verticalLabelPosition=bottom;labelPosition=center;align=center;html=1;outlineConnect=0;fillColor=#CCCCCC;strokeColor=#6881B3;gradientColor=none;gradientDirection=north;strokeWidth=2;shape=mxgraph.networks.phone_2;" vertex="1" parent="1">
          <mxGeometry x="50" y="545.63" width="30" height="25" as="geometry" />
        </mxCell>
        <mxCell id="24l3vRYm9YXjc25Ay6zQ-94" value="" style="fontColor=#0066CC;verticalAlign=top;verticalLabelPosition=bottom;labelPosition=center;align=center;html=1;outlineConnect=0;fillColor=#CCCCCC;strokeColor=#6881B3;gradientColor=none;gradientDirection=north;strokeWidth=2;shape=mxgraph.networks.phone_1;" vertex="1" parent="1">
          <mxGeometry x="120" y="650" width="30" height="20" as="geometry" />
        </mxCell>
        <mxCell id="24l3vRYm9YXjc25Ay6zQ-95" value="" style="fontColor=#0066CC;verticalAlign=top;verticalLabelPosition=bottom;labelPosition=center;align=center;html=1;outlineConnect=0;fillColor=#CCCCCC;strokeColor=#6881B3;gradientColor=none;gradientDirection=north;strokeWidth=2;shape=mxgraph.networks.phone_1;" vertex="1" parent="1">
          <mxGeometry x="120" y="607.5" width="30" height="20" as="geometry" />
        </mxCell>
        <mxCell id="24l3vRYm9YXjc25Ay6zQ-96" value="&lt;font style=&quot;font-size: 19px&quot;&gt;Atelier&lt;/font&gt;" style="rounded=0;whiteSpace=wrap;html=1;" vertex="1" parent="1">
          <mxGeometry x="601.5" y="562.5" width="183.5" height="137.5" as="geometry" />
        </mxCell>
        <mxCell id="24l3vRYm9YXjc25Ay6zQ-97" value="" style="fontColor=#0066CC;verticalAlign=top;verticalLabelPosition=bottom;labelPosition=center;align=center;html=1;outlineConnect=0;fillColor=#CCCCCC;strokeColor=#6881B3;gradientColor=none;gradientDirection=north;strokeWidth=2;shape=mxgraph.networks.phone_2;" vertex="1" parent="1">
          <mxGeometry x="750" y="577.5" width="30" height="30" as="geometry" />
        </mxCell>
        <mxCell id="24l3vRYm9YXjc25Ay6zQ-98" value="&lt;font style=&quot;font-size: 19px&quot;&gt;Hangar&lt;/font&gt;" style="rounded=0;whiteSpace=wrap;html=1;" vertex="1" parent="1">
          <mxGeometry x="860" y="562.5" width="190" height="137.5" as="geometry" />
        </mxCell>
        <mxCell id="24l3vRYm9YXjc25Ay6zQ-99" value="" style="fontColor=#0066CC;verticalAlign=top;verticalLabelPosition=bottom;labelPosition=center;align=center;html=1;outlineConnect=0;fillColor=#CCCCCC;strokeColor=#6881B3;gradientColor=none;gradientDirection=north;strokeWidth=2;shape=mxgraph.networks.phone_2;" vertex="1" parent="1">
          <mxGeometry x="1000" y="577.5" width="35" height="30" as="geometry" />
        </mxCell>
        <mxCell id="24l3vRYm9YXjc25Ay6zQ-100" value="&lt;font style=&quot;font-size: 28px&quot;&gt;&lt;b&gt;EMPLOYÉS&lt;/b&gt;&lt;/font&gt;" style="text;html=1;strokeColor=none;fillColor=none;align=center;verticalAlign=middle;whiteSpace=wrap;rounded=0;" vertex="1" parent="1">
          <mxGeometry x="90" y="465" width="40" height="20" as="geometry" />
        </mxCell>
        <mxCell id="24l3vRYm9YXjc25Ay6zQ-102" value="" style="endArrow=classic;startArrow=classic;html=1;fillColor=#f8cecc;strokeColor=#b85450;" edge="1" target="24l3vRYm9YXjc25Ay6zQ-96" parent="1">
          <mxGeometry width="50" height="50" relative="1" as="geometry">
            <mxPoint x="506.75" y="632.5" as="sourcePoint" />
            <mxPoint x="556.75" y="582.5" as="targetPoint" />
          </mxGeometry>
        </mxCell>
        <mxCell id="24l3vRYm9YXjc25Ay6zQ-103" value="" style="endArrow=classic;startArrow=classic;html=1;entryX=-0.011;entryY=0.396;entryDx=0;entryDy=0;fillColor=#f8cecc;strokeColor=#b85450;entryPerimeter=0;" edge="1" target="24l3vRYm9YXjc25Ay6zQ-98" parent="1">
          <mxGeometry width="50" height="50" relative="1" as="geometry">
            <mxPoint x="220" y="617" as="sourcePoint" />
            <mxPoint x="630" y="455" as="targetPoint" />
            <Array as="points">
              <mxPoint x="250" y="575" />
              <mxPoint x="330" y="525" />
              <mxPoint x="430" y="485" />
              <mxPoint x="530" y="475" />
              <mxPoint x="600" y="475" />
              <mxPoint x="660" y="485" />
              <mxPoint x="710" y="495" />
              <mxPoint x="760" y="515" />
              <mxPoint x="820" y="565" />
            </Array>
          </mxGeometry>
        </mxCell>
        <mxCell id="24l3vRYm9YXjc25Ay6zQ-104" value="" style="endArrow=classic;startArrow=classic;html=1;fillColor=#f8cecc;strokeColor=#b85450;exitX=1;exitY=0.5;exitDx=0;exitDy=0;entryX=0;entryY=0.5;entryDx=0;entryDy=0;" edge="1" source="24l3vRYm9YXjc25Ay6zQ-96" target="24l3vRYm9YXjc25Ay6zQ-98" parent="1">
          <mxGeometry width="50" height="50" relative="1" as="geometry">
            <mxPoint x="790" y="295" as="sourcePoint" />
            <mxPoint x="884.75" y="294.3649463806969" as="targetPoint" />
          </mxGeometry>
        </mxCell>
        <mxCell id="24l3vRYm9YXjc25Ay6zQ-105" value="" style="endArrow=classic;startArrow=classic;html=1;fillColor=#f8cecc;strokeColor=#b85450;" edge="1" parent="1">
          <mxGeometry width="50" height="50" relative="1" as="geometry">
            <mxPoint x="549.9999999999991" y="625" as="sourcePoint" />
            <mxPoint x="549.9999999999991" y="475" as="targetPoint" />
            <Array as="points">
              <mxPoint x="550" y="555" />
            </Array>
          </mxGeometry>
        </mxCell>
        <mxCell id="24l3vRYm9YXjc25Ay6zQ-106" value="" style="endArrow=classic;startArrow=classic;html=1;entryX=0;entryY=0.5;entryDx=0;entryDy=0;fillColor=#f8cecc;strokeColor=#b85450;" edge="1" target="24l3vRYm9YXjc25Ay6zQ-90" parent="1">
          <mxGeometry width="50" height="50" relative="1" as="geometry">
            <mxPoint x="220" y="632" as="sourcePoint" />
            <mxPoint x="630" y="465" as="targetPoint" />
          </mxGeometry>
        </mxCell>
        <mxCell id="24l3vRYm9YXjc25Ay6zQ-107" value="&lt;font style=&quot;font-size: 26px&quot;&gt;Réseau interne&lt;/font&gt;" style="text;html=1;strokeColor=none;fillColor=none;align=center;verticalAlign=middle;whiteSpace=wrap;rounded=0;" vertex="1" parent="1">
          <mxGeometry x="-10" y="220" width="260" height="20" as="geometry" />
        </mxCell>
        <mxCell id="24l3vRYm9YXjc25Ay6zQ-109" value="" style="ellipse;whiteSpace=wrap;html=1;" vertex="1" parent="1">
          <mxGeometry x="1595" y="370" width="300" height="160" as="geometry" />
        </mxCell>
        <mxCell id="24l3vRYm9YXjc25Ay6zQ-110" value="&lt;font style=&quot;font-size: 22px&quot;&gt;Réseau externe&lt;/font&gt;" style="text;html=1;strokeColor=none;fillColor=none;align=center;verticalAlign=middle;whiteSpace=wrap;rounded=0;" vertex="1" parent="1">
          <mxGeometry x="1570" y="370" width="350" height="70" as="geometry" />
        </mxCell>
        <mxCell id="24l3vRYm9YXjc25Ay6zQ-111" value="" style="endArrow=classic;html=1;entryX=1;entryY=0.5;entryDx=0;entryDy=0;fillColor=#d5e8d4;strokeColor=#82b366;strokeWidth=3;exitX=0;exitY=0.5;exitDx=0;exitDy=0;" edge="1" parent="1" source="24l3vRYm9YXjc25Ay6zQ-109" target="24l3vRYm9YXjc25Ay6zQ-82">
          <mxGeometry width="50" height="50" relative="1" as="geometry">
            <mxPoint x="1500" y="370" as="sourcePoint" />
            <mxPoint x="1320" y="250" as="targetPoint" />
            <Array as="points">
              <mxPoint x="1070" y="350" />
            </Array>
          </mxGeometry>
        </mxCell>
        <mxCell id="24l3vRYm9YXjc25Ay6zQ-112" value="" style="endArrow=classic;startArrow=classic;html=1;entryX=0.5;entryY=1;entryDx=0;entryDy=0;exitX=0.5;exitY=1;exitDx=0;exitDy=0;fillColor=#d5e8d4;strokeColor=#82b366;strokeWidth=3;" edge="1" parent="1" source="24l3vRYm9YXjc25Ay6zQ-90" target="24l3vRYm9YXjc25Ay6zQ-109">
          <mxGeometry width="50" height="50" relative="1" as="geometry">
            <mxPoint x="1340" y="800" as="sourcePoint" />
            <mxPoint x="1390" y="750" as="targetPoint" />
            <Array as="points">
              <mxPoint x="1100" y="900" />
            </Array>
          </mxGeometry>
        </mxCell>
        <mxCell id="24l3vRYm9YXjc25Ay6zQ-116" value="" style="endArrow=classic;html=1;exitX=1;exitY=0.5;exitDx=0;exitDy=0;entryX=0.5;entryY=0;entryDx=0;entryDy=0;fillColor=#d5e8d4;strokeColor=#82b366;startSize=6;jumpSize=6;strokeWidth=3;" edge="1" parent="1" source="24l3vRYm9YXjc25Ay6zQ-81" target="24l3vRYm9YXjc25Ay6zQ-110">
          <mxGeometry width="50" height="50" relative="1" as="geometry">
            <mxPoint x="1270" y="540" as="sourcePoint" />
            <mxPoint x="1320" y="490" as="targetPoint" />
            <Array as="points">
              <mxPoint x="1200" y="40" />
            </Array>
          </mxGeometry>
        </mxCell>
        <mxCell id="24l3vRYm9YXjc25Ay6zQ-117" value="" style="endArrow=classic;html=1;strokeWidth=1;exitX=0;exitY=1;exitDx=0;exitDy=0;entryX=0.25;entryY=0;entryDx=0;entryDy=0;fillColor=#f8cecc;strokeColor=#b85450;" edge="1" parent="1" source="24l3vRYm9YXjc25Ay6zQ-81" target="24l3vRYm9YXjc25Ay6zQ-87">
          <mxGeometry width="50" height="50" relative="1" as="geometry">
            <mxPoint x="1270" y="540" as="sourcePoint" />
            <mxPoint x="1320" y="490" as="targetPoint" />
            <Array as="points">
              <mxPoint x="320" y="270" />
            </Array>
          </mxGeometry>
        </mxCell>
        <mxCell id="24l3vRYm9YXjc25Ay6zQ-118" value="" style="endArrow=classic;html=1;strokeWidth=1;entryX=0.006;entryY=0.613;entryDx=0;entryDy=0;fillColor=#f8cecc;strokeColor=#b85450;entryPerimeter=0;" edge="1" parent="1" source="24l3vRYm9YXjc25Ay6zQ-119" target="24l3vRYm9YXjc25Ay6zQ-81">
          <mxGeometry width="50" height="50" relative="1" as="geometry">
            <mxPoint x="250" y="458" as="sourcePoint" />
            <mxPoint x="1320" y="490" as="targetPoint" />
            <Array as="points" />
          </mxGeometry>
        </mxCell>
        <mxCell id="24l3vRYm9YXjc25Ay6zQ-119" value="" style="shape=cross;whiteSpace=wrap;html=1;rotation=45;fillColor=#f8cecc;strokeColor=#b85450;" vertex="1" parent="1">
          <mxGeometry x="260" y="220" width="50" height="50" as="geometry" />
        </mxCell>
        <mxCell id="24l3vRYm9YXjc25Ay6zQ-121" value="" style="endArrow=classic;html=1;strokeWidth=1;entryX=0;entryY=0;entryDx=30;entryDy=50;fillColor=#f8cecc;strokeColor=#b85450;entryPerimeter=0;" edge="1" parent="1" target="24l3vRYm9YXjc25Ay6zQ-119">
          <mxGeometry width="50" height="50" relative="1" as="geometry">
            <mxPoint x="250" y="457.99999999999955" as="sourcePoint" />
            <mxPoint x="441.3199999999997" y="95.82000000000016" as="targetPoint" />
            <Array as="points" />
          </mxGeometry>
        </mxCell>
        <mxCell id="24l3vRYm9YXjc25Ay6zQ-124" value="" style="shape=flexArrow;endArrow=classic;startArrow=classic;html=1;strokeWidth=1;entryX=0.5;entryY=1;entryDx=0;entryDy=0;fillColor=#f8cecc;strokeColor=#b85450;" edge="1" parent="1" target="24l3vRYm9YXjc25Ay6zQ-82">
          <mxGeometry width="50" height="50" relative="1" as="geometry">
            <mxPoint x="550" y="450" as="sourcePoint" />
            <mxPoint x="581.75" y="340" as="targetPoint" />
          </mxGeometry>
        </mxCell>
        <mxCell id="24l3vRYm9YXjc25Ay6zQ-126" value="" style="endArrow=classic;startArrow=classic;html=1;strokeWidth=1;exitX=0.5;exitY=0.11;exitDx=0;exitDy=0;exitPerimeter=0;entryX=0.5;entryY=1;entryDx=0;entryDy=0;entryPerimeter=0;fillColor=#f8cecc;strokeColor=#b85450;" edge="1" parent="1" source="24l3vRYm9YXjc25Ay6zQ-92" target="24l3vRYm9YXjc25Ay6zQ-93">
          <mxGeometry width="50" height="50" relative="1" as="geometry">
            <mxPoint x="260" y="530" as="sourcePoint" />
            <mxPoint x="310" y="480" as="targetPoint" />
          </mxGeometry>
        </mxCell>
        <mxCell id="24l3vRYm9YXjc25Ay6zQ-130" value="" style="endArrow=classic;startArrow=classic;html=1;strokeWidth=1;exitX=0.92;exitY=0.09;exitDx=0;exitDy=0;exitPerimeter=0;fillColor=#f8cecc;strokeColor=#b85450;" edge="1" parent="1" source="24l3vRYm9YXjc25Ay6zQ-95">
          <mxGeometry width="50" height="50" relative="1" as="geometry">
            <mxPoint x="180" y="630" as="sourcePoint" />
            <mxPoint x="220" y="630" as="targetPoint" />
          </mxGeometry>
        </mxCell>
        <mxCell id="24l3vRYm9YXjc25Ay6zQ-131" value="" style="endArrow=classic;startArrow=classic;html=1;strokeWidth=1;fillColor=#f8cecc;strokeColor=#b85450;" edge="1" parent="1" target="24l3vRYm9YXjc25Ay6zQ-94">
          <mxGeometry width="50" height="50" relative="1" as="geometry">
            <mxPoint x="220" y="630" as="sourcePoint" />
            <mxPoint x="230" y="580" as="targetPoint" />
          </mxGeometry>
        </mxCell>
        <mxCell id="24l3vRYm9YXjc25Ay6zQ-132" value="" style="rounded=0;whiteSpace=wrap;html=1;" vertex="1" parent="1">
          <mxGeometry x="-300" y="1040" width="750" height="350" as="geometry" />
        </mxCell>
        <mxCell id="24l3vRYm9YXjc25Ay6zQ-133" value="" style="endArrow=classic;startArrow=classic;html=1;strokeWidth=1;fillColor=#f8cecc;strokeColor=#b85450;" edge="1" parent="1">
          <mxGeometry width="50" height="50" relative="1" as="geometry">
            <mxPoint x="-270" y="1120" as="sourcePoint" />
            <mxPoint x="-220" y="1070" as="targetPoint" />
          </mxGeometry>
        </mxCell>
        <mxCell id="24l3vRYm9YXjc25Ay6zQ-134" value="" style="endArrow=classic;startArrow=classic;html=1;strokeWidth=1;fillColor=#d5e8d4;strokeColor=#82b366;" edge="1" parent="1">
          <mxGeometry width="50" height="50" relative="1" as="geometry">
            <mxPoint x="-270" y="1230" as="sourcePoint" />
            <mxPoint x="-220" y="1180" as="targetPoint" />
          </mxGeometry>
        </mxCell>
        <mxCell id="24l3vRYm9YXjc25Ay6zQ-136" value="&lt;font style=&quot;font-size: 16px&quot;&gt;VOIP interne&lt;/font&gt;" style="text;html=1;strokeColor=none;fillColor=none;align=center;verticalAlign=middle;whiteSpace=wrap;rounded=0;" vertex="1" parent="1">
          <mxGeometry x="-160" y="1090" width="100" height="30" as="geometry" />
        </mxCell>
        <mxCell id="24l3vRYm9YXjc25Ay6zQ-137" value="&lt;font style=&quot;font-size: 16px&quot;&gt;VOIP externe&lt;/font&gt;" style="text;html=1;strokeColor=none;fillColor=none;align=center;verticalAlign=middle;whiteSpace=wrap;rounded=0;" vertex="1" parent="1">
          <mxGeometry x="-175" y="1200" width="130" height="20" as="geometry" />
        </mxCell>
        <mxCell id="24l3vRYm9YXjc25Ay6zQ-138" value="" style="aspect=fixed;perimeter=ellipsePerimeter;html=1;align=center;shadow=0;dashed=0;spacingTop=3;image;image=img/lib/active_directory/internet_cloud.svg;" vertex="1" parent="1">
          <mxGeometry x="1696.19" y="440" width="97.62" height="61.5" as="geometry" />
        </mxCell>
        <mxCell id="24l3vRYm9YXjc25Ay6zQ-139" value="&lt;font style=&quot;font-size: 20px&quot;&gt;ERP WEB&lt;/font&gt;" style="ellipse;whiteSpace=wrap;html=1;aspect=fixed;" vertex="1" parent="1">
          <mxGeometry x="-120" y="260" width="170" height="170" as="geometry" />
        </mxCell>
      </root>
    </mxGraphModel>
  </diagram>
</mxfile>
